<svg data-v-423bf9ae="" xmlns="http://www.w3.org/2000/svg" viewBox="0 0 239.76675850917997 60" class="font"><!----><!----><!----><g data-v-423bf9ae="" id="829cdb19-09a3-4318-bcf7-c5e1d7ca25ff" fill="black" transform="matrix(5.830903811703725,0,0,5.830903811703725,-4.08162983089197,-26.064141118497787)"><path d="M0.91 11.86L0.70 14.01C0.70 14.01 1.90 14.76 3.78 14.76C5.63 14.76 7.13 13.86 7.13 12.00C7.13 8.82 2.28 8.99 2.28 6.79C2.28 5.75 3.01 5.24 3.88 5.24C4.51 5.24 4.96 5.29 5.54 5.54C5.63 5.87 5.73 6.20 5.73 6.33L5.73 6.94L6.55 7.03L6.75 4.91C5.85 4.69 4.83 4.47 3.92 4.47C2.18 4.47 0.88 5.38 0.88 7.06C0.88 10.08 5.66 9.87 5.66 12.17C5.66 13.30 4.93 13.92 3.81 13.92C3.12 13.92 2.48 13.73 1.99 13.54C1.92 13.23 1.83 12.78 1.83 12.61L1.83 11.94ZM11.30 7.50C9.24 7.50 8.25 9.02 8.25 11.12C8.25 13.23 9.35 14.69 11.47 14.69C13.05 14.69 13.94 13.85 13.94 13.85L13.55 13.20C13.55 13.20 12.66 13.78 11.47 13.78C10.21 13.78 9.60 12.49 9.56 11.23L13.75 11.23L13.99 10.77C13.99 8.81 13.26 7.50 11.30 7.50ZM11.24 8.23C12.24 8.23 12.70 9.02 12.70 10.01C12.70 10.08 12.68 10.29 12.68 10.29L9.58 10.53C9.67 9.37 10.09 8.23 11.24 8.23ZM17.01 7.88L16.74 7.63L16.24 7.63C15.96 7.63 14.95 7.57 14.95 7.57L14.88 8.32L15.95 8.54C15.95 8.54 16.09 9.32 16.09 9.60L16.09 12.63C16.09 12.91 15.95 13.69 15.95 13.69L14.88 13.92L14.95 14.62C14.95 14.62 16.23 14.55 16.51 14.55C17.63 14.55 18.59 14.62 18.59 14.62L18.69 13.79L17.32 13.69C17.32 13.69 17.22 12.91 17.22 12.21L17.22 10.57C17.28 9.25 17.81 8.48 19.10 8.47L19.15 8.47C19.25 8.76 19.35 9.09 19.35 9.17L19.35 9.91L20.16 9.95L20.30 7.64C20.30 7.64 19.87 7.50 19.35 7.50C18.34 7.50 17.64 7.91 17.09 8.81ZM23.90 7.50C21.84 7.50 20.85 9.02 20.85 11.12C20.85 13.23 21.95 14.69 24.07 14.69C25.65 14.69 26.54 13.85 26.54 13.85L26.15 13.20C26.15 13.20 25.26 13.78 24.07 13.78C22.81 13.78 22.20 12.49 22.16 11.23L26.35 11.23L26.59 10.77C26.59 8.81 25.86 7.50 23.90 7.50ZM23.84 8.23C24.84 8.23 25.30 9.02 25.30 10.01C25.30 10.08 25.28 10.29 25.28 10.29L22.18 10.53C22.27 9.37 22.69 8.23 23.84 8.23ZM27.48 8.32L28.55 8.54C28.55 8.54 28.69 9.32 28.69 9.60L28.69 12.70C28.66 13.02 28.55 13.69 28.55 13.69L27.48 13.92L27.55 14.62C27.55 14.62 28.83 14.55 29.11 14.55C30.23 14.55 30.91 14.62 30.91 14.62L31.01 13.79L29.92 13.69C29.92 13.69 29.82 12.91 29.82 12.21L29.82 10.71C29.83 9.34 30.51 8.36 31.61 8.36C32.79 8.36 33.05 9.51 33.05 10.68L33.05 12.63C33.05 12.98 32.98 13.38 32.91 13.69L31.98 13.92L32.05 14.62C32.05 14.62 33.19 14.55 33.47 14.55C34.59 14.55 35.28 14.62 35.28 14.62L35.38 13.79L34.29 13.69C34.29 13.69 34.19 12.91 34.19 12.21L34.19 10.68C34.19 8.75 33.75 7.50 31.82 7.50C30.76 7.50 30.03 8.13 29.69 8.78L29.61 7.88L29.34 7.63L28.84 7.63C28.56 7.63 27.55 7.57 27.55 7.57ZM39.13 7.50C37.07 7.50 36.08 9.02 36.08 11.12C36.08 13.23 37.18 14.69 39.30 14.69C40.88 14.69 41.78 13.85 41.78 13.85L41.38 13.20C41.38 13.20 40.49 13.78 39.30 13.78C38.04 13.78 37.44 12.49 37.39 11.23L41.58 11.23L41.82 10.77C41.82 8.81 41.09 7.50 39.13 7.50ZM39.07 8.23C40.07 8.23 40.53 9.02 40.53 10.01C40.53 10.08 40.52 10.29 40.52 10.29L37.41 10.53C37.51 9.37 37.93 8.23 39.07 8.23Z"></path></g><!----><!----></svg>